<svg width="48" height="62" viewBox="0 0 48 62" fill="none" xmlns="http://www.w3.org/2000/svg">
<path fill-rule="evenodd" clip-rule="evenodd" d="M21.6037 2.18745V4.20601H19.4789H17.3541V6.54329V8.88057H19.4789H21.6037V10.4742V12.0678H14.6981H7.79252V14.2988V16.5299H14.6981H21.6037V22.705V28.8801L20.6484 28.1942C20.1232 27.8168 19.5346 27.3328 19.3408 27.1186C19.1468 26.9042 18.9074 26.7289 18.8086 26.7289C18.7098 26.7289 18.629 27.9201 18.629 29.3758V32.0228L20.1253 33.2168L21.6218 34.4107L21.5595 42.9467L21.4975 51.4828L20.9008 52.6978C18.0566 58.4898 9.47239 59.018 5.78288 53.6276C4.69371 52.0364 4.27533 50.1829 4.57174 48.261C4.70072 47.424 4.96313 46.3476 5.15458 45.8691C5.8343 44.1701 8.71638 42.24 10.5732 42.24C11.5368 42.24 12.4635 42.8171 12.8026 43.6283C13.3094 44.8414 13.2176 45.0649 12.414 44.5749C10.3882 43.3398 7.47019 45.0239 7.8773 47.1933C8.04707 48.0985 9.26055 49.2518 10.0431 49.2518C10.5543 49.2518 10.5637 49.2735 10.2482 49.7241C9.37486 50.9708 10.2605 52.9564 11.7997 53.2024C12.5608 53.3242 12.5788 53.3486 12.5028 54.1465C12.3674 55.565 13.7849 56.498 15.0481 55.8219C15.6307 55.5102 16.082 54.3862 15.8595 53.801C15.7019 53.3862 15.7677 53.325 16.4995 53.2082C18.0734 52.9564 18.97 50.9867 18.0857 49.7241C17.7746 49.2798 17.7821 49.2518 18.2123 49.2518C19.3291 49.2518 20.5426 47.9062 20.5405 46.67C20.5392 45.8872 19.753 44.7938 18.9499 44.4583C18.0175 44.0686 17.386 44.0718 16.4307 44.471C16.0113 44.6463 15.6367 44.7897 15.5984 44.7897C15.5599 44.7897 15.5053 44.443 15.4767 44.0188C15.4087 43.007 14.9106 41.8433 14.2511 41.1546L13.7205 40.6007L14.3703 40.3315C16.2097 39.5695 17.8773 36.8723 18.1178 34.2703C18.4034 31.1823 17.4861 29.117 15.0772 27.4235C12.9507 25.9287 11.91 24.8419 11.6382 23.8324C11.1185 21.902 12.0884 20.567 14.0112 20.567H15.0976L14.4419 21.208C13.6408 21.9912 13.4354 22.719 13.7479 23.666C14.4567 25.8138 17.4317 25.7834 18.336 23.619C19.3045 21.3011 17.9784 18.8827 15.3141 18.1082C12.8721 17.3981 10.5535 18.3249 9.42819 20.4607C8.955 21.3589 8.79245 23.8175 9.11925 25.1353C9.26628 25.7283 9.21762 25.8002 8.42167 26.1654C7.95124 26.3813 7.23455 26.8706 6.82935 27.2529L6.09268 27.9477V26.8071C6.09268 25.6385 5.62203 24.8166 4.95272 24.8166C3.96384 24.8166 2.76375 26.6269 1.92403 29.3849C1.38539 31.154 1.34077 31.5837 1.32696 35.1219C1.31867 37.2254 1.38922 39.3995 1.48377 39.953L1.65588 40.9596L2.90781 39.9176C3.59646 39.3445 5.09891 38.3486 6.24673 37.7044C8.79373 36.2748 9.87567 35.4385 10.5006 34.4154C11.2589 33.1739 11.0486 31.8962 9.91753 30.8725C9.54548 30.5357 9.14899 30.4486 7.98375 30.4482C7.17781 30.4477 6.51806 30.4237 6.51785 30.3948C6.51679 30.1819 8.19644 28.553 8.669 28.3087C9.4216 27.9196 10.9986 27.9173 11.924 28.3038C12.9458 28.7307 14.3295 30.1921 14.9268 31.4749C16.282 34.3854 15.0143 37.2137 12.108 37.7636C11.4291 37.892 10.3287 38.138 9.66256 38.3103C5.5568 39.3723 2.37576 42.1741 1.03161 45.9125C0.27922 48.0052 0.249473 50.8327 0.958094 52.9043C3.00258 58.8818 9.49555 62.413 15.9337 61.0489C18.4724 60.5111 20.4204 59.4156 22.3693 57.43L24.091 55.6757L24.4376 56.2624C25.0833 57.3554 27.3267 59.2156 28.9279 59.9859C31.6889 61.3139 34.6485 61.6728 37.646 61.0436C42.458 60.0333 46.5245 55.9447 47.3242 51.3131C47.9987 47.4064 46.2516 43.0761 43.0211 40.6478C40.918 39.0668 39.5181 38.4846 36.3981 37.893C33.6475 37.3716 32.4423 36.1335 32.4411 33.8279C32.4396 31.5611 34.1345 28.9859 36.1261 28.2286C36.9648 27.9099 38.5195 27.9502 39.213 28.3087C39.7064 28.5639 41.3644 30.1849 41.3644 30.4123C41.3644 30.4507 40.8542 30.4399 40.2306 30.3882C38.3678 30.2338 36.9034 31.3822 36.9042 32.9971C36.9049 34.5004 38.3183 35.9204 41.5567 37.6716C42.6374 38.256 44.1222 39.2321 44.8567 39.8411L46.1919 40.9479L46.4342 39.4813C46.7756 37.4137 46.7325 32.8719 46.3545 31.0875C45.6184 27.6128 44.4713 25.3788 43.1919 24.929C42.6775 24.748 42.5366 24.7909 42.175 25.2373C41.8482 25.6408 41.7709 26.0052 41.8255 26.88C41.8926 27.9575 41.749 28.3338 41.5089 27.7084C41.4466 27.5459 40.7699 27.0015 40.0051 26.4988C38.7439 25.6695 38.6289 25.5341 38.7677 25.0412C38.852 24.7424 38.9166 23.7807 38.9113 22.9043C38.8954 20.3018 37.8092 18.7794 35.4865 18.1043C33.5742 17.5483 31.575 18.0578 30.2759 19.4319C28.2867 21.5361 29.3163 25.2415 31.8903 25.2415C32.9553 25.2415 33.6605 24.7864 34.0536 23.8458C34.4428 22.914 34.2329 21.9832 33.4639 21.2314C32.8756 20.656 32.8652 20.6165 33.2731 20.5098C33.8847 20.35 35.1593 20.6747 35.6448 21.1139C35.8709 21.3185 36.165 21.8499 36.2982 22.2944C36.4971 22.958 36.4771 23.2687 36.1865 24.0298C35.7708 25.1181 35.1468 25.7545 33.0362 27.2435C30.4166 29.0917 29.4727 31.1185 29.7642 34.2703C30.0041 36.8653 31.6723 39.5695 33.5005 40.3268L34.1392 40.5913L33.5247 41.2912C32.8958 42.0075 32.5173 42.9161 32.3773 44.046C32.2898 44.7519 32.1952 44.781 31.2716 44.3877C30.5077 44.0622 29.2254 44.1948 28.4928 44.6748C26.729 45.8305 27.2296 48.7727 29.2592 49.1787C29.7625 49.2794 29.8781 49.3889 29.7598 49.6525C29.675 49.8412 29.5658 50.3847 29.5171 50.8605C29.4037 51.9699 30.183 52.9925 31.3022 53.2024C31.9224 53.3189 32.0314 53.4168 31.9379 53.7744C31.7817 54.3717 32.3089 55.541 32.8696 55.841C33.5434 56.2016 34.7146 55.9199 35.1213 55.2992C35.3265 54.9858 35.4281 54.4911 35.3771 54.0541C35.2964 53.3618 35.328 53.3231 36.0781 53.2033C37.6283 52.9553 38.4742 51.0768 37.6215 49.7756C37.2924 49.2733 37.2977 49.2518 37.7482 49.2518C38.487 49.2518 39.4134 48.5938 39.7891 47.8023C40.3976 46.5195 39.8067 45.0324 38.4657 44.4721C37.4169 44.0339 36.2923 44.0724 35.4681 44.5749L34.7775 44.996V44.5636C34.7775 43.8389 35.385 42.9037 36.094 42.5372C37.5153 41.8023 40.135 42.7008 41.7832 44.4891C43.1779 46.0019 43.7813 48.8447 43.1945 51.1359C42.3851 54.2944 39.9333 56.5135 36.4504 57.2398C32.6816 58.0255 28.517 56.0176 26.934 52.6515C26.3966 51.5088 26.383 51.3675 26.3195 46.2771C26.2836 43.4139 26.2836 40.4114 26.3195 39.605L26.3845 38.1385L27.022 38.6629C27.3726 38.9512 28.0181 39.455 28.4562 39.7826L29.253 40.378L29.2447 37.6438L29.2364 34.9094L27.7574 33.7626L26.2783 32.6159V24.5729V16.5299H33.1839H40.0895V14.2988V12.0678H33.1839H26.2783V10.4742V8.88057H28.4031H30.5279V6.54329V4.20601H28.4031H26.2783V2.18745V0.168884H23.941H21.6037V2.18745Z" fill="white"/>
</svg>
