<?xml version="1.0" standalone="no"?>
<!DOCTYPE svg PUBLIC "-//W3C//DTD SVG 20010904//EN"
 "http://www.w3.org/TR/2001/REC-SVG-20010904/DTD/svg10.dtd">
<svg version="1.0" xmlns="http://www.w3.org/2000/svg"
 width="600.000000pt" height="600.000000pt" viewBox="0 0 600.000000 600.000000"
 preserveAspectRatio="xMidYMid meet">

<g transform="translate(0.000000,600.000000) scale(0.100000,-0.100000)"
fill="#000000" stroke="none">
<path d="M2440 5147 l0 -54 38 -7 c20 -3 49 -6 63 -6 38 0 126 -28 144 -46 8
-9 12 -20 9 -26 -4 -6 -2 -8 3 -5 6 4 17 -7 24 -26 11 -26 14 -226 17 -1056
l3 -1024 -112 104 c-232 215 -378 364 -385 392 -7 32 20 71 43 62 8 -2 11 -1
8 5 -6 10 45 26 115 35 120 16 110 9 110 70 l0 55 -770 0 c-424 0 -773 0 -777
0 -5 0 -8 -25 -8 -57 l0 -56 65 -4 c199 -11 415 -48 541 -94 102 -37 243 -119
310 -180 14 -13 61 -55 104 -94 69 -61 178 -161 435 -399 239 -221 300 -279
300 -285 0 -13 -484 -428 -725 -622 -121 -96 -294 -223 -350 -256 -122 -72
-303 -121 -529 -145 l-116 -12 0 -53 0 -53 715 0 715 0 0 53 0 54 -114 12
c-62 7 -136 18 -163 25 -149 39 -137 63 179 373 254 250 305 296 316 289 6 -3
9 0 8 7 0 7 18 30 42 51 l43 39 -3 -574 c-3 -564 -3 -575 -25 -621 -14 -31
-32 -52 -55 -64 -41 -21 -139 -43 -195 -44 l-43 0 0 -54 c0 -47 3 -54 23 -60
29 -8 1021 -8 1041 0 12 5 16 20 16 59 l0 52 -82 7 c-190 14 -246 49 -268 165
-6 32 -10 249 -10 528 l0 474 218 -202 c312 -291 332 -311 348 -341 16 -32 18
-41 4 -33 -5 3 -7 0 -4 -8 9 -23 -66 -46 -212 -64 l-134 -17 0 -53 0 -53 840
0 840 0 0 55 c0 52 -1 55 -25 55 -14 0 -103 5 -198 10 -315 19 -450 55 -601
157 -65 45 -314 260 -571 494 -377 343 -505 462 -504 472 0 16 330 293 343
289 6 -2 8 -1 4 3 -7 7 77 79 344 292 325 260 463 323 778 353 63 6 134 13
158 16 l42 5 0 55 0 54 -705 0 c-388 0 -708 1 -712 3 -5 1 -9 -24 -11 -55 l-3
-57 33 -5 c18 -3 65 -8 103 -11 143 -12 235 -44 235 -82 0 -27 -59 -99 -176
-214 -120 -118 -409 -381 -425 -387 -5 -2 -9 228 -9 531 l0 535 80 -24 c177
-51 324 -55 490 -13 228 57 409 191 500 370 60 118 74 183 74 339 0 121 -3
143 -28 215 -37 109 -68 158 -146 235 -80 79 -174 129 -316 167 l-99 27 -627
4 -628 3 0 -54z m1085 -89 c125 -26 251 -118 308 -225 63 -118 85 -313 52
-467 -44 -207 -180 -349 -373 -386 -81 -16 -260 -8 -325 15 l-48 17 3 487 c3
449 4 489 21 514 10 16 30 33 45 39 68 27 207 30 317 6z"/>
<path d="M4181 3030 c-120 -25 -235 -112 -285 -213 -55 -112 -56 -217 -5 -324
35 -73 78 -112 166 -150 92 -40 83 -53 -33 -53 -73 0 -103 4 -125 17 -16 10
-29 21 -29 24 0 4 -7 15 -16 24 -25 24 -30 7 -33 -105 l-2 -100 185 0 186 0 0
38 c0 20 -3 67 -6 103 -6 63 -8 67 -39 82 -77 37 -120 145 -113 286 10 201
137 322 292 277 62 -18 114 -65 147 -133 21 -42 24 -62 24 -163 0 -87 -4 -126
-18 -162 -16 -41 -62 -93 -109 -123 -13 -8 -17 -32 -20 -108 l-3 -98 180 0
180 0 3 105 c3 118 -3 128 -49 74 l-27 -33 -111 -3 c-92 -3 -111 -1 -111 11 0
8 24 23 59 36 190 69 264 285 165 482 -46 92 -124 157 -229 193 -62 20 -166
28 -224 16z"/>
<path d="M1303 2913 c-23 -8 -64 -34 -91 -58 -89 -80 -132 -194 -132 -350 0
-188 66 -324 187 -385 41 -21 62 -25 143 -25 78 0 104 4 145 23 55 26 105 70
137 121 l21 33 20 -63 c25 -83 49 -109 100 -109 56 0 92 30 116 96 28 73 28
124 1 124 -15 0 -20 -7 -20 -25 0 -14 -11 -37 -25 -50 -50 -51 -108 -20 -138
74 -15 48 -15 53 14 168 29 115 81 345 93 411 l6 32 -80 0 c-91 0 -79 14 -110
-139 -19 -97 -30 -134 -30 -100 0 23 -55 132 -85 167 -42 50 -94 72 -167 71
-35 0 -82 -7 -105 -16z m176 -78 c44 -22 74 -65 120 -168 l41 -95 -15 -72
c-49 -232 -116 -340 -212 -340 -94 0 -139 88 -150 290 -12 248 48 399 160 400
15 0 41 -7 56 -15z"/>
</g>
</svg>
